<?xml version="1.0" encoding="UTF-8" standalone="no"?>
<svg
   xmlns:dc="http://purl.org/dc/elements/1.1/"
   xmlns:cc="http://creativecommons.org/ns#"
   xmlns:rdf="http://www.w3.org/1999/02/22-rdf-syntax-ns#"
   xmlns:svg="http://www.w3.org/2000/svg"
   xmlns="http://www.w3.org/2000/svg"
   xmlns:sodipodi="http://sodipodi.sourceforge.net/DTD/sodipodi-0.dtd"
   xmlns:inkscape="http://www.inkscape.org/namespaces/inkscape"
   version="1.1"
   id="svg4136"
   viewBox="0 0 2240 659.99999"
   height="660"
   width="2240"
   inkscape:version="0.91 r13725"
   sodipodi:docname="CarbonSavvyLogoLarge.svg"
   inkscape:export-filename="C:\Parth\Coding\Webtech\phonegap\CarbonSavvy\CarbonSavvy\www\img\largelogo.png"
   inkscape:export-xdpi="20.010218"
   inkscape:export-ydpi="20.010218">
  <sodipodi:namedview
     pagecolor="#ffffff"
     bordercolor="#666666"
     borderopacity="1"
     objecttolerance="10"
     gridtolerance="10"
     guidetolerance="10"
     inkscape:pageopacity="0"
     inkscape:pageshadow="2"
     inkscape:window-width="1366"
     inkscape:window-height="705"
     id="namedview8"
     showgrid="false"
     inkscape:zoom="0.40043946"
     inkscape:cx="1028.9398"
     inkscape:cy="113.90959"
     inkscape:window-x="-8"
     inkscape:window-y="-8"
     inkscape:window-maximized="1"
     inkscape:current-layer="svg4136"
     fit-margin-top="10"
     fit-margin-left="10"
     fit-margin-right="10"
     fit-margin-bottom="10" />
  <title
     id="title4707">Carbon Savvy Logo</title>
  <defs
     id="defs4138" />
  <metadata
     id="metadata4141">
    <rdf:RDF>
      <cc:Work
         rdf:about="">
        <dc:format>image/svg+xml</dc:format>
        <dc:type
           rdf:resource="http://purl.org/dc/dcmitype/StillImage" />
        <dc:title>Carbon Savvy Logo</dc:title>
      </cc:Work>
    </rdf:RDF>
  </metadata>
  <path
     style="opacity:1;fill:#60d25f;fill-opacity:1;fill-rule:nonzero;stroke:none;stroke-width:0.60500002;stroke-linejoin:bevel;stroke-miterlimit:4;stroke-dasharray:none;stroke-opacity:1"
     d="M 330,10 C 153.26888,10 9.9999993,153.26888 10,330 10,506.73112 153.26888,650 330,650 506.73112,650 650,506.73112 650,330 650,153.26888 506.73112,10 330,10 Z m 8.27539,86.851562 c 13.61097,0 26.8584,1.288548 39.74023,3.865238 12.88187,2.34234 24.79121,5.38696 35.72852,9.13476 10.93743,3.7478 20.65921,8.08109 29.16602,13 8.50693,4.91903 14.34039,9.01948 17.5,12.29883 3.40277,3.04501 5.59034,5.38572 6.5625,7.02539 0.9719,1.63968 1.70105,3.63226 2.1875,5.97461 0.72924,2.10824 1.21437,4.68352 1.45703,7.72851 0.48657,3.04515 0.73047,6.67634 0.73047,10.89258 0,4.68481 -0.2439,8.66608 -0.73047,11.94532 -0.48658,3.27936 -1.21573,6.09125 -2.1875,8.43359 -0.9719,2.10813 -2.18593,3.74673 -3.64453,4.91797 -1.21581,0.93664 -2.79631,1.40625 -4.74024,1.40625 -3.40277,0 -8.14244,-2.2252 -14.21875,-6.67578 -6.07631,-4.68469 -13.97515,-9.7219 -23.69726,-15.10938 -9.47908,-5.6217 -21.146,-10.65683 -35,-15.10742 -13.61097,-4.68469 -30.01756,-7.02734 -49.21875,-7.02734 -20.90259,0 -39.98163,4.0986 -57.23828,12.29687 -17.01374,7.96417 -31.59739,19.79442 -43.75,35.48828 -12.15274,15.69387 -21.63209,34.90007 -28.4375,57.6211 -6.56253,22.4868 -9.84375,48.25332 -9.84376,77.29882 0,28.81117 3.161,54.34313 9.48047,76.59571 6.56238,22.01835 15.79747,40.52247 27.70703,55.51367 12.15263,14.75698 26.97871,26.00065 44.47852,33.73047 17.49981,7.4956 37.30984,11.24414 59.42774,11.24414 18.71499,0 34.99938,-2.22532 48.85351,-6.67578 14.09704,-4.45059 26.0064,-9.37036 35.72852,-14.75781 9.96515,-5.6217 18.10643,-10.65696 24.42578,-15.10743 6.31934,-4.45046 11.3034,-6.67578 14.94922,-6.67578 1.70138,0 3.15969,0.3519 4.375,1.05469 1.21581,0.70279 2.1874,2.10684 2.91601,4.21484 0.72924,1.8739 1.21437,4.56846 1.45703,8.08203 0.48658,3.51358 0.73047,7.96409 0.73047,13.35157 0,3.7478 -0.12257,7.02698 -0.36523,9.83789 -0.24267,2.81079 -0.72779,5.27078 -1.45703,7.3789 -0.48657,2.10812 -1.21572,3.98142 -2.1875,5.6211 -0.9719,1.63968 -2.6746,3.63031 -5.10547,5.97265 -2.4305,2.34247 -7.53286,5.97367 -15.31055,10.89258 -7.77769,4.68482 -17.50143,9.37 -29.16797,14.05469 -11.4235,4.45059 -24.66909,8.19717 -39.73828,11.24219 -14.82628,3.27935 -31.11067,4.91992 -48.85351,4.91992 -30.62471,0 -58.33358,-4.91987 -83.125,-14.75781 -24.54828,-9.83807 -45.57246,-24.36092 -63.07227,-43.56836 -17.25678,-19.20745 -30.62444,-42.86416 -40.10352,-70.97266 -9.23604,-28.34272 -13.85351,-60.9024 -13.85351,-97.67773 0,-37.71222 4.98211,-71.32589 14.94726,-100.83985 10.20832,-29.51383 24.42733,-54.45921 42.65625,-74.83789 18.22893,-20.6129 39.98226,-36.30707 65.25977,-47.08203 25.52055,-10.77495 53.71429,-16.162108 84.58203,-16.162108 z m 483.74023,74.039058 c -2.93968,0 -5.38982,0.12222 -7.3496,0.36719 -1.95979,0.24497 -3.55053,0.61357 -4.7754,1.10352 -1.10237,0.48994 -1.89872,1.10297 -2.38867,1.83789 -0.36746,0.73492 -0.55078,1.59237 -0.55078,2.57226 l 0,245.46289 c 0,0.9799 0.18332,1.83735 0.55078,2.57227 0.36746,0.73492 1.1027,1.34599 2.20508,1.83594 1.10238,0.36746 2.5098,0.67495 4.22461,0.91992 1.71481,0.24497 3.79831,0.36719 6.24805,0.36719 2.57222,0 4.65376,-0.12222 6.24609,-0.36719 1.71481,-0.24497 3.12418,-0.55246 4.22656,-0.91992 1.10238,-0.48995 1.89678,-1.10102 2.38672,-1.83594 0.48995,-0.73492 0.73633,-1.59237 0.73633,-2.57227 l 0,-20.21093 c 4.77698,5.02195 9.30867,9.3092 13.5957,12.86132 4.28704,3.55212 8.5743,6.49112 12.86133,8.81836 4.28704,2.32725 8.6354,3.98105 13.04492,4.96094 4.53201,1.10238 9.43034,1.6543 14.69727,1.6543 11.39126,0 21.49736,-2.14461 30.31641,-6.43164 8.81904,-4.28704 16.22862,-10.47252 22.23046,-18.55664 6.12434,-8.08412 10.71909,-17.82163 13.78125,-29.21289 3.18466,-11.51375 4.77539,-24.43469 4.77539,-38.76563 0,-12.0037 -1.22409,-23.395 -3.67382,-34.17383 -2.44974,-10.77882 -6.37036,-20.14969 -11.75977,-28.11133 -5.26693,-8.08412 -12.1857,-14.51403 -20.75976,-19.29101 -8.45159,-4.77698 -18.6799,-7.16602 -30.6836,-7.16602 -4.89946,0 -9.55337,0.48886 -13.96289,1.46875 -4.40952,0.9799 -8.81899,2.57259 -13.22851,4.77735 -4.40952,2.08227 -8.94317,4.83795 -13.59766,8.26758 -4.53201,3.42962 -9.24702,7.65578 -14.14649,12.67773 l 0,-99.0293 c 10e-6,-0.97989 -0.24442,-1.83734 -0.73437,-2.57226 -0.48995,-0.73492 -1.28629,-1.34795 -2.38867,-1.83789 -1.10238,-0.48995 -2.63397,-0.85855 -4.59375,-1.10352 -1.95979,-0.24497 -4.47103,-0.36719 -7.53321,-0.36719 z m 641.76958,14.69922 c -10.2889,0 -19.9042,1.40742 -28.8457,4.22461 -8.8191,2.69471 -16.475,6.67643 -22.9668,11.94336 -6.3693,5.26693 -11.3899,11.81906 -15.0645,19.6582 -3.5521,7.71666 -5.3281,16.53756 -5.3281,26.45899 0,9.67645 1.5296,18.00459 4.5918,24.98633 3.1846,6.85925 7.2885,12.86142 12.3105,18.00586 5.022,5.14444 10.7167,9.61502 17.086,13.41211 6.3693,3.79708 12.9233,7.288 19.6601,10.47265 6.7367,3.06217 13.2889,6.12338 19.6582,9.18555 6.4918,2.93969 12.2496,6.24727 17.2715,9.92187 5.0219,3.55212 9.0648,7.71716 12.127,12.49414 3.0621,4.77698 4.5918,10.53277 4.5918,17.26954 0,6.24682 -1.102,11.82123 -3.3067,16.7207 -2.2048,4.89947 -5.3901,9.06451 -9.5547,12.49414 -4.042,3.30714 -8.9404,5.8795 -14.6972,7.7168 -5.6344,1.8373 -11.8811,2.75586 -18.7403,2.75586 -9.064,0 -17.0866,-1.04273 -24.0683,-3.125 -6.8593,-2.20476 -12.7392,-4.53074 -17.6387,-6.98047 -4.8995,-2.44974 -8.9424,-4.71656 -12.127,-6.79883 -3.0622,-2.08227 -5.4492,-3.12305 -7.164,-3.12305 -0.9799,0 -1.8374,0.24443 -2.5723,0.73438 -0.7349,0.36746 -1.3479,1.10269 -1.8379,2.20508 -0.4899,1.10238 -0.8585,2.57285 -1.1035,4.41015 -0.245,1.71481 -0.3672,3.91858 -0.3672,6.61328 0,3.79709 0.3075,6.86026 0.9199,9.1875 0.735,2.20476 1.7758,4.04188 3.1231,5.51172 1.4699,1.46985 3.9811,3.24585 7.5332,5.32813 3.6746,2.08227 8.1452,4.10271 13.4121,6.0625 5.3894,1.95978 11.4527,3.61358 18.1895,4.96093 6.8592,1.34736 14.2688,2.02149 22.2304,2.02149 11.3913,0 21.9862,-1.53159 31.7852,-4.59375 9.9214,-3.06217 18.4959,-7.59385 25.7226,-13.59571 7.3492,-6.12433 13.0439,-13.53586 17.086,-22.23242 4.1645,-8.69655 6.248,-18.61738 6.248,-29.76367 0,-9.43147 -1.5927,-17.57629 -4.7773,-24.43555 -3.0622,-6.98174 -7.1661,-12.9839 -12.3106,-18.00586 -5.0219,-5.14443 -10.7777,-9.55391 -17.2695,-13.22851 -6.4918,-3.79709 -13.107,-7.2269 -19.8438,-10.28906 -6.7368,-3.18466 -13.3499,-6.30698 -19.8418,-9.36914 -6.4918,-3.06217 -12.3106,-6.43087 -17.455,-10.10547 -5.022,-3.6746 -9.0629,-7.90076 -12.125,-12.67774 -3.0622,-4.77698 -4.5938,-10.47361 -4.5938,-17.08789 0,-4.53201 0.7964,-8.81731 2.3887,-12.85937 1.5923,-4.04206 3.9794,-7.53298 7.1641,-10.47266 3.1846,-2.93968 7.2274,-5.26761 12.1269,-6.98242 4.8995,-1.8373 10.6572,-2.75586 17.2715,-2.75586 7.1043,0 13.4731,0.91856 19.1074,2.75586 5.7569,1.71481 10.7163,3.67415 14.8809,5.87891 4.1645,2.08227 7.6554,3.98049 10.4726,5.69531 2.9397,1.71481 5.0843,2.57226 6.4317,2.57226 0.8574,0 1.5926,-0.24442 2.205,-0.73437 0.735,-0.61243 1.2849,-1.46989 1.6524,-2.57227 0.3674,-1.22486 0.6138,-2.69534 0.7363,-4.41015 0.245,-1.71482 0.3672,-3.67415 0.3672,-5.87891 0,-2.32725 -0.061,-4.22547 -0.1836,-5.69531 -0.1225,-1.46984 -0.3077,-2.69394 -0.5527,-3.67383 -0.245,-1.10238 -0.5505,-1.95983 -0.918,-2.57227 -0.3675,-0.73492 -1.1638,-1.65347 -2.3887,-2.75585 -1.1024,-1.22487 -3.4914,-2.75645 -7.166,-4.59376 -3.6746,-1.95978 -7.8988,-3.67469 -12.6758,-5.14453 -4.6544,-1.59232 -9.677,-2.81837 -15.0664,-3.67578 -5.2669,-0.97989 -10.5338,-1.46875 -15.8007,-1.46875 z m -909.09575,63.01953 c 11.88121,0 21.98536,1.34631 30.31446,4.04102 8.32909,2.69471 15.06649,6.67643 20.21093,11.94336 5.14444,5.14444 8.87979,11.57435 11.20704,19.29101 2.32723,7.71666 3.49218,16.71894 3.49218,27.00782 l 0,111.52539 c 0,1.46984 -0.49081,2.57172 -1.4707,3.30664 -0.97989,0.73492 -2.32816,1.28684 -4.04297,1.65429 -1.71481,0.36746 -4.22411,0.55079 -7.53125,0.55079 -3.18465,0 -5.75701,-0.18332 -7.7168,-0.55079 -1.8373,-0.36745 -3.18557,-0.91937 -4.04296,-1.65429 -0.85741,-0.73492 -1.28516,-1.8368 -1.28516,-3.30664 l 0,-16.53516 c -7.22671,7.71667 -15.31238,13.71687 -24.25391,18.00391 -8.81904,4.28703 -18.18795,6.43164 -28.10937,6.43164 -8.69656,0 -16.59695,-1.16494 -23.70117,-3.49219 -6.98175,-2.20476 -12.98391,-5.44929 -18.00586,-9.73633 -4.89947,-4.28704 -8.75898,-9.55396 -11.57618,-15.80078 -2.6947,-6.24682 -4.04101,-13.35087 -4.04101,-21.3125 0,-9.30899 1.89822,-17.39466 5.69531,-24.2539 3.79709,-6.85927 9.24734,-12.55394 16.35156,-17.08594 7.10424,-4.53201 15.80097,-7.90071 26.08985,-10.10547 10.28888,-2.32725 21.86351,-3.49024 34.72461,-3.49024 l 22.7832,0 0,-12.86132 c 0,-6.36931 -0.67413,-12.00288 -2.02148,-16.90235 -1.34736,-4.89946 -3.55112,-8.9423 -6.61329,-12.12695 -2.93968,-3.30714 -6.79919,-5.75728 -11.57617,-7.34961 -4.77698,-1.71481 -10.65498,-2.57227 -17.63672,-2.57227 -7.47168,0 -14.20909,0.91856 -20.21093,2.75586 -5.87936,1.71482 -11.08518,3.67415 -15.61719,5.87891 -4.40953,2.08227 -8.14487,4.04356 -11.20703,5.88086 -2.93968,1.71481 -5.1454,2.57226 -6.61524,2.57226 -0.97989,0 -1.83734,-0.24638 -2.57226,-0.73632 -0.73492,-0.48995 -1.4071,-1.22323 -2.01953,-2.20313 -0.48995,-0.97989 -0.85855,-2.20594 -1.10352,-3.67578 -0.24497,-1.59233 -0.36719,-3.30723 -0.36719,-5.14453 0,-3.06217 0.18332,-5.4512 0.55078,-7.16602 0.48995,-1.8373 1.53072,-3.55025 3.12305,-5.14257 1.71481,-1.59233 4.59466,-3.4314 8.63672,-5.51368 4.04206,-2.20476 8.69596,-4.16409 13.96289,-5.8789 5.26693,-1.8373 11.02467,-3.30583 17.27148,-4.40821 6.24682,-1.22486 12.55453,-1.83789 18.92383,-1.83789 z m 193.28321,0 c -3.55212,0 -7.10414,0.48886 -10.65625,1.46875 -3.42963,0.85741 -6.92055,2.51121 -10.47266,4.96094 -3.55211,2.32725 -7.34856,5.57374 -11.39063,9.73828 -3.91957,4.16455 -8.14572,9.55369 -12.67773,16.16797 l 0,-24.06836 c 0,-0.97989 -0.24443,-1.77624 -0.73437,-2.38867 -0.36746,-0.73492 -1.0416,-1.34794 -2.02149,-1.83789 -0.97989,-0.61243 -2.38926,-0.97908 -4.22656,-1.10156 -1.71481,-0.24498 -3.91857,-0.36719 -6.61328,-0.36719 -2.8172,0 -5.08402,0.12221 -6.79883,0.36719 -1.71481,0.12248 -3.12223,0.48913 -4.22461,1.10156 -1.10238,0.48995 -1.83762,1.10297 -2.20508,1.83789 -0.36746,0.61243 -0.55078,1.40878 -0.55078,2.38867 l 0,165.35742 c 0,0.9799 0.18332,1.83735 0.55078,2.57227 0.48995,0.61243 1.28629,1.1624 2.38867,1.65234 1.22487,0.48995 2.81756,0.85855 4.77735,1.10352 1.95978,0.24497 4.40797,0.36719 7.34765,0.36719 3.06218,0 5.57342,-0.12222 7.53321,-0.36719 1.95978,-0.24497 3.49137,-0.61357 4.59375,-1.10352 1.10238,-0.48994 1.89872,-1.03991 2.38867,-1.65234 0.48995,-0.73492 0.73437,-1.59237 0.73437,-2.57227 l 0,-108.76953 c 4.28704,-6.73676 8.20766,-12.43144 11.75977,-17.08594 3.55211,-4.65449 6.91886,-8.38983 10.10351,-11.20703 3.30714,-2.81719 6.43142,-4.83958 9.3711,-6.06445 2.93968,-1.22487 5.93979,-1.83594 9.00195,-1.83594 2.57222,0 4.96126,0.24443 7.16602,0.73438 2.20476,0.48994 4.16409,1.04186 5.8789,1.6543 1.8373,0.48994 3.42999,1.03991 4.77735,1.65234 1.46984,0.48995 2.69589,0.73633 3.67578,0.73633 0.97989,0 1.71318,-0.24638 2.20312,-0.73633 0.61244,-0.61243 1.10325,-1.40878 1.47071,-2.38867 0.36746,-1.10238 0.61189,-2.57091 0.73437,-4.40821 0.12249,-1.8373 0.1836,-4.10412 0.1836,-6.79882 0,-2.8172 -0.0611,-5.02096 -0.1836,-6.61329 0,-1.71481 -0.12221,-3.00196 -0.36719,-3.85937 -0.12248,-0.85741 -0.3058,-1.53154 -0.55078,-2.02148 -0.24497,-0.61244 -0.73578,-1.22351 -1.4707,-1.83594 -0.73492,-0.61244 -2.02012,-1.22546 -3.85742,-1.83789 -1.71482,-0.61244 -3.67415,-1.16435 -5.87891,-1.6543 -2.20476,-0.48995 -4.34937,-0.79548 -6.43164,-0.91797 -1.95979,-0.24497 -3.7358,-0.36719 -5.32812,-0.36719 z m 329.42774,0 c -14.086,0 -26.3959,2.26487 -36.9297,6.79688 -10.5339,4.53201 -19.3528,10.90277 -26.457,19.10937 -6.9817,8.20661 -12.2487,18.00523 -15.80081,29.39649 -3.42963,11.26877 -5.14453,23.63974 -5.14453,37.11328 0,13.96348 1.6538,26.45667 4.96094,37.48047 3.3071,11.0238 8.3296,20.39467 15.0664,28.11133 6.7367,7.71666 15.126,13.59661 25.1699,17.63867 10.1664,4.04206 22.0486,6.0625 35.6446,6.0625 13.9634,0 26.2122,-2.26682 36.746,-6.79883 10.6564,-4.65449 19.4753,-11.0844 26.4571,-19.29102 7.1042,-8.2066 12.4322,-17.94411 15.9844,-29.21289 3.552,-11.39126 5.3281,-23.82334 5.3281,-37.29687 0,-13.841 -1.715,-26.27503 -5.1446,-37.29883 -3.3071,-11.0238 -8.3296,-20.39271 -15.0664,-28.10937 -6.7367,-7.71666 -15.1871,-13.59662 -25.3535,-17.63868 -10.0439,-4.04206 -21.8649,-6.0625 -35.4609,-6.0625 z m 208.9023,0 c -9.4314,0 -18.8023,2.45015 -28.1113,7.34961 -9.1865,4.77698 -18.4351,12.36989 -27.7441,22.78125 l 0,-21.86328 c 0,-0.97989 -0.2445,-1.77624 -0.7344,-2.38867 -0.3675,-0.73492 -1.0416,-1.34794 -2.0215,-1.83789 -0.9799,-0.61243 -2.3873,-0.97908 -4.2246,-1.10156 -1.7148,-0.24498 -3.9206,-0.36719 -6.6152,-0.36719 -2.8172,0 -5.0821,0.12221 -6.7969,0.36719 -1.7149,0.12248 -3.1242,0.48913 -4.2266,1.10156 -1.1024,0.48995 -1.8376,1.10297 -2.2051,1.83789 -0.3674,0.61243 -0.5507,1.40878 -0.5507,2.38867 l 0,165.35742 c 0,0.9799 0.1833,1.83735 0.5507,2.57227 0.49,0.61243 1.2863,1.1624 2.3887,1.65234 1.2249,0.48995 2.8176,0.85855 4.7774,1.10352 1.9598,0.24497 4.4099,0.36719 7.3496,0.36719 3.0621,0 5.5734,-0.12222 7.5332,-0.36719 1.9598,-0.24497 3.4894,-0.61357 4.5918,-1.10352 1.1023,-0.48994 1.8987,-1.03991 2.3886,-1.65234 0.49,-0.73492 0.7364,-1.59237 0.7364,-2.57227 l 0,-115.5664 c 8.329,-10.41137 16.2905,-18.31176 23.8847,-23.70117 7.5942,-5.38942 15.1871,-8.08399 22.7813,-8.08399 5.8793,0 11.024,1.10188 15.4336,3.30664 4.532,2.20476 8.2062,5.39014 11.0234,9.55469 2.8172,4.16455 4.9618,9.12399 6.4317,14.88086 1.4698,5.75687 2.205,13.35172 2.205,22.7832 l 0,96.82617 c 0,0.9799 0.2445,1.83735 0.7344,2.57227 0.49,0.61243 1.2864,1.1624 2.3887,1.65234 1.1024,0.48995 2.632,0.85855 4.5918,1.10352 1.9598,0.24497 4.4711,0.36719 7.5332,0.36719 2.9397,0 5.3898,-0.12222 7.3496,-0.36719 1.9598,-0.24497 3.4913,-0.61357 4.5937,-1.10352 1.1024,-0.48994 1.8987,-1.03991 2.3887,-1.65234 0.4899,-0.73492 0.7344,-1.59237 0.7344,-2.57227 l 0,-100.86914 c 0,-11.75872 -1.0408,-21.80176 -3.1231,-30.13086 -1.9598,-8.45158 -5.2673,-15.80005 -9.9218,-22.04687 -4.6545,-6.24682 -10.7789,-11.20821 -18.3731,-14.88281 -7.4716,-3.79709 -16.7184,-5.69532 -27.7422,-5.69532 z m 346.5137,0 c -6.3693,0 -12.677,0.61303 -18.9238,1.83789 -6.2469,1.10238 -12.0046,2.57091 -17.2715,4.40821 -5.2669,1.71481 -9.9208,3.67414 -13.9629,5.8789 -4.0421,2.08228 -6.92,3.92135 -8.6348,5.51368 -1.5923,1.59232 -2.633,3.30527 -3.123,5.14257 -0.3674,1.71482 -0.5527,4.10385 -0.5527,7.16602 0,1.8373 0.1242,3.5522 0.3691,5.14453 0.245,1.46984 0.6116,2.69589 1.1016,3.67578 0.6124,0.9799 1.2865,1.71318 2.0214,2.20313 0.735,0.48994 1.5924,0.73632 2.5723,0.73632 1.4699,0 3.6736,-0.85745 6.6133,-2.57226 3.0622,-1.8373 6.7994,-3.79859 11.209,-5.88086 4.532,-2.20476 9.7359,-4.16409 15.6152,-5.87891 6.0019,-1.8373 12.7393,-2.75586 20.2109,-2.75586 6.9818,0 12.8617,0.85746 17.6387,2.57227 4.777,1.59233 8.6346,4.04247 11.5742,7.34961 3.0622,3.18465 5.2679,7.22749 6.6153,12.12695 1.3473,4.89947 2.0195,10.53304 2.0195,16.90235 l 0,12.86132 -22.7812,0 c -12.8612,0 -24.4358,1.16299 -34.7247,3.49024 -10.2888,2.20476 -18.9855,5.57346 -26.0898,10.10547 -7.1042,4.532 -12.5545,10.22668 -16.3516,17.08594 -3.7971,6.85925 -5.6972,14.94491 -5.6972,24.2539 0,7.96163 1.3482,15.06568 4.0429,21.3125 2.8172,6.24682 6.6748,11.51374 11.5743,15.80078 5.0219,4.28704 11.0241,7.53157 18.0058,9.73633 7.1043,2.32725 15.0047,3.49219 23.7012,3.49219 9.9214,0 19.2923,-2.14461 28.1113,-6.43164 8.9416,-4.28704 17.0252,-10.28724 24.252,-18.00391 l 0,16.53516 c 0,1.46984 0.4277,2.57172 1.2851,3.30664 0.8574,0.73492 2.2057,1.28684 4.043,1.65429 1.9598,0.36746 4.5321,0.55079 7.7168,0.55079 3.3071,0 5.8184,-0.18333 7.5332,-0.55079 1.7148,-0.36746 3.0611,-0.91937 4.041,-1.65429 0.9799,-0.73492 1.4707,-1.8368 1.4707,-3.30664 l 0,-111.52539 c 0,-10.28888 -1.163,-19.29116 -3.4902,-27.00782 -2.3273,-7.71666 -6.0645,-14.14657 -11.209,-19.29101 -5.1444,-5.26693 -11.8799,-9.24865 -20.209,-11.94336 -8.3291,-2.69471 -18.4352,-4.04102 -30.3164,-4.04102 z m 107.8496,2.57227 c -2.8172,0 -5.2062,0.0611 -7.166,0.18359 -1.8373,0.12249 -3.3669,0.42803 -4.5918,0.91797 -1.1024,0.36746 -1.8987,0.91938 -2.3887,1.6543 -0.49,0.73492 -0.7363,1.59237 -0.7363,2.57226 l 0,1.46875 c 0.1225,0.48995 0.3078,1.2863 0.5527,2.38868 l 1.2852,3.85937 56.2227,157.08789 c 0.4899,1.22487 1.1621,2.2676 2.0195,3.125 0.8574,0.85741 2.0224,1.52959 3.4922,2.01953 1.5923,0.48995 3.6127,0.85855 6.0625,1.10352 2.4497,0.24497 5.5109,0.36719 9.1855,0.36719 3.6746,0 6.7378,-0.12222 9.1875,-0.36719 2.4497,-0.12249 4.4702,-0.42998 6.0625,-0.91992 1.5923,-0.48995 2.7573,-1.16213 3.4922,-2.01953 0.8574,-0.85741 1.5296,-1.96124 2.0195,-3.3086 l 56.4063,-157.08789 c 0.245,-0.85741 0.4283,-1.65375 0.5508,-2.38867 0.245,-0.73492 0.4283,-1.40905 0.5507,-2.02149 0.1225,-0.61243 0.1836,-1.16435 0.1836,-1.65429 0.1226,-0.61244 0.1836,-1.1624 0.1836,-1.65235 0,-0.97989 -0.2444,-1.77623 -0.7343,-2.38867 -0.3675,-0.73492 -1.1027,-1.34794 -2.2051,-1.83789 -0.9799,-0.48994 -2.3873,-0.79548 -4.2246,-0.91797 -1.8373,-0.12248 -4.1652,-0.18359 -6.9824,-0.18359 -3.3073,0 -6.0018,0.12221 -8.084,0.36719 -1.9598,0.12248 -3.5525,0.42802 -4.7774,0.91797 -1.1024,0.48994 -1.9598,1.10297 -2.5722,1.83789 -0.6124,0.73492 -1.0402,1.65348 -1.2852,2.75586 l -46.1172,136.32812 -0.5508,2.20508 -0.7343,-2.20508 -46.668,-136.32812 c -0.49,-1.10238 -1.0419,-2.02094 -1.6543,-2.75586 -0.4899,-0.73492 -1.3474,-1.34795 -2.5723,-1.83789 -1.1024,-0.48995 -2.7562,-0.79549 -4.9609,-0.91797 -2.0823,-0.24498 -4.8991,-0.36719 -8.4512,-0.36719 z m 171.9707,0 c -2.8172,0 -5.2042,0.0611 -7.164,0.18359 -1.8373,0.12249 -3.3689,0.42803 -4.5938,0.91797 -1.1024,0.36746 -1.8987,0.91938 -2.3887,1.6543 -0.4899,0.73492 -0.7343,1.59237 -0.7343,2.57226 l 0,1.46875 c 0.1224,0.48995 0.3058,1.2863 0.5507,2.38868 0.3675,1.10238 0.7971,2.38953 1.2872,3.85937 l 56.2207,157.08789 c 0.49,1.22487 1.164,2.2676 2.0214,3.125 0.8574,0.85741 2.0205,1.52959 3.4903,2.01953 1.5923,0.48995 3.6127,0.85855 6.0625,1.10352 2.4497,0.24497 5.5129,0.36719 9.1875,0.36719 3.6746,0 6.7358,-0.12222 9.1855,-0.36719 2.4498,-0.12249 4.4721,-0.42998 6.0645,-0.91992 1.5923,-0.48995 2.7553,-1.16213 3.4902,-2.01953 0.8574,-0.85741 1.5316,-1.96124 2.0215,-3.3086 l 56.4043,-157.08789 c 0.245,-0.85741 0.4283,-1.65375 0.5508,-2.38867 0.245,-0.73492 0.4283,-1.40905 0.5508,-2.02149 0.1225,-0.61243 0.1855,-1.16435 0.1855,-1.65429 0.1225,-0.61244 0.1836,-1.1624 0.1836,-1.65235 0,-0.97989 -0.2464,-1.77623 -0.7363,-2.38867 -0.3675,-0.73492 -1.1027,-1.34794 -2.2051,-1.83789 -0.9799,-0.48994 -2.3873,-0.79548 -4.2246,-0.91797 -1.8373,-0.12248 -4.1652,-0.18359 -6.9824,-0.18359 -3.3072,0 -6.0018,0.12221 -8.084,0.36719 -1.9598,0.12248 -3.5525,0.42802 -4.7774,0.91797 -1.1024,0.48994 -1.9598,1.10297 -2.5722,1.83789 -0.6125,0.73492 -1.0402,1.65348 -1.2852,2.75586 l -46.1172,136.32812 -0.5508,2.20508 -0.7343,-2.20508 -46.668,-136.32812 c -0.4899,-1.10238 -1.0399,-2.02094 -1.6524,-2.75586 -0.4899,-0.73492 -1.3474,-1.34795 -2.5722,-1.83789 -1.1024,-0.48995 -2.7562,-0.79549 -4.961,-0.91797 -2.0822,-0.24498 -4.9009,-0.36719 -8.4531,-0.36719 z m 172.1563,0 c -3.6746,0 -6.6156,0.18332 -8.8203,0.55078 -2.2048,0.24497 -3.7956,0.79689 -4.7754,1.6543 -0.98,0.8574 -1.4707,2.02039 -1.4707,3.49023 0,1.46984 0.4907,3.49028 1.4707,6.0625 l 58.9765,158.00781 c 0.3675,1.22487 1.0416,2.38981 2.0215,3.49219 0.9799,1.10238 2.0207,1.89677 3.1231,2.38672 l -22.7832,57.50781 c -0.7349,1.71482 -1.0405,3.18529 -0.918,4.41016 0.1225,1.22487 0.6744,2.20453 1.6543,2.93945 1.1023,0.73492 2.632,1.22573 4.5918,1.47071 1.9598,0.36746 4.5321,0.55078 7.7168,0.55078 6.1243,0 10.656,-0.55192 13.5957,-1.6543 3.0621,-0.97989 4.9623,-2.44842 5.6972,-4.4082 l 22.0469,-60.81641 59.3438,-164.4375 c 0.7349,-2.20476 1.1035,-4.04188 1.1035,-5.51172 0,-1.46984 -0.5519,-2.63283 -1.6543,-3.49023 -0.9799,-0.85741 -2.5726,-1.40933 -4.7774,-1.6543 -2.2048,-0.36746 -5.0215,-0.55078 -8.4511,-0.55078 -3.9196,0 -6.9197,0.18332 -9.002,0.55078 -2.0822,0.24497 -3.6749,0.73578 -4.7773,1.4707 -0.9799,0.61244 -1.8374,2.08096 -2.5723,4.40821 L 2150.5684,391 l -0.5508,0 -47.2188,-132.65234 c -0.6124,-1.59233 -1.2255,-2.81838 -1.8379,-3.67579 -0.49,-0.97989 -1.3474,-1.71513 -2.5722,-2.20507 -1.2249,-0.48995 -2.8787,-0.79549 -4.961,-0.91797 -2.0822,-0.24498 -4.9601,-0.36719 -8.6347,-0.36719 z m -1008.6778,22.78125 c 9.6765,0 17.7603,1.77601 24.252,5.32812 6.4918,3.42963 11.6364,8.1466 15.4336,14.14844 3.797,6.00185 6.4916,12.98368 8.084,20.94531 1.7148,7.96164 2.5722,16.41199 2.5722,25.35352 0,9.55396 -0.9796,18.3118 -2.9394,26.27344 -1.9598,7.96163 -5.023,14.82125 -9.1875,20.57812 -4.1646,5.75688 -9.4926,10.22746 -15.9844,13.41211 -6.4918,3.18466 -14.1458,4.77735 -22.9648,4.77735 -9.6765,0 -17.7621,-1.71491 -24.2539,-5.14454 -6.4918,-3.55211 -11.6976,-8.26712 -15.6172,-14.14648 -3.7971,-6.00185 -6.5528,-12.98368 -8.2676,-20.94531 -1.5923,-7.96164 -2.3887,-16.47505 -2.3887,-25.53907 0,-9.43148 0.9797,-18.12821 2.9395,-26.08984 2.0822,-7.96163 5.2065,-14.82125 9.3711,-20.57812 4.1645,-5.87936 9.4314,-10.41105 15.8007,-13.59571 6.4918,-3.18465 14.2089,-4.77734 23.1504,-4.77734 z m -189.97653,0.73633 c 7.83915,0 14.39128,1.89822 19.65821,5.69531 5.26693,3.6746 9.49308,8.57293 12.67773,14.69727 3.18465,6.12433 5.38841,13.16727 6.61328,21.1289 1.34735,7.96164 2.02149,16.16952 2.02149,24.6211 0,7.71666 -0.79635,15.37262 -2.38868,22.96679 -1.46984,7.47169 -3.91998,14.26825 -7.34961,20.39258 -3.30714,6.00185 -7.65355,10.84103 -13.04297,14.51563 -5.38941,3.6746 -11.88238,5.51171 -19.47656,5.51171 -8.2066,0 -16.107,-2.63346 -23.70117,-7.90039 -7.59417,-5.38941 -15.55567,-13.16759 -23.88477,-23.33398 l 0,-65.95898 c 4.77699,-6.12434 9.24757,-11.20794 13.41211,-15.25 4.28704,-4.04207 8.39098,-7.34966 12.31055,-9.92188 3.91957,-2.57222 7.77713,-4.40934 11.57422,-5.51172 3.79709,-1.10238 7.6566,-1.65234 11.57617,-1.65234 z M 563.875,346.9043 c -8.32909,0 -15.55535,0.73523 -21.67969,2.20507 -6.12433,1.34736 -11.20794,3.4289 -15.25,6.2461 -4.04206,2.6947 -7.04216,6.0023 -9.00195,9.92187 -1.8373,3.79709 -2.75586,8.20656 -2.75586,13.22852 0,8.57406 2.69457,15.43368 8.08398,20.57812 5.5119,5.02196 13.16787,7.53321 22.9668,7.53321 7.96163,0 15.31011,-2.02044 22.04688,-6.0625 6.85925,-4.04206 14.0244,-10.2295 21.49609,-18.5586 l 0,-35.09179 -25.90625,0 z m 1078.1289,0 25.9043,0 0,35.09179 c -7.4717,8.3291 -14.6368,14.51654 -21.4961,18.5586 -6.7368,4.04206 -14.0853,6.0625 -22.0469,6.0625 -9.7989,0 -17.4548,-2.51125 -22.9668,-7.53321 -5.3894,-5.14444 -8.0839,-12.00406 -8.0839,-20.57812 0,-5.02196 0.9185,-9.43143 2.7558,-13.22852 1.9597,-3.91957 4.9619,-7.22717 9.0039,-9.92187 4.0421,-2.8172 9.1237,-4.89874 15.2481,-6.2461 6.1243,-1.46984 13.3525,-2.20507 21.6816,-2.20507 z"
     id="path4691"
     inkscape:connector-curvature="0" />
  <flowRoot
     xml:space="preserve"
     id="flowRoot3343"
     style="font-style:normal;font-weight:normal;font-size:40px;line-height:125%;font-family:sans-serif;letter-spacing:0px;word-spacing:0px;fill:#000000;fill-opacity:1;stroke:none;stroke-width:1px;stroke-linecap:butt;stroke-linejoin:miter;stroke-opacity:1"
     transform="translate(10,9.8007813)"><flowRegion
       id="flowRegion3345"><rect
         id="rect3347"
         width="324.64334"
         height="414.54456"
         x="127.36008"
         y="110.58164" /></flowRegion><flowPara
       id="flowPara3349"></flowPara></flowRoot></svg>
