<?xml version="1.0" encoding="UTF-8" standalone="no"?>
<svg
   xmlns:dc="http://purl.org/dc/elements/1.1/"
   xmlns:cc="http://creativecommons.org/ns#"
   xmlns:rdf="http://www.w3.org/1999/02/22-rdf-syntax-ns#"
   xmlns:svg="http://www.w3.org/2000/svg"
   xmlns="http://www.w3.org/2000/svg"
   xmlns:sodipodi="http://sodipodi.sourceforge.net/DTD/sodipodi-0.dtd"
   xmlns:inkscape="http://www.inkscape.org/namespaces/inkscape"
   version="1.1"
   id="svg4136"
   viewBox="0 0 639.99999 639.99999"
   height="640"
   width="640"
   inkscape:version="0.91 r13725"
   sodipodi:docname="CarbonSavvyLogo.svg">
  <sodipodi:namedview
     pagecolor="#ffffff"
     bordercolor="#666666"
     borderopacity="1"
     objecttolerance="10"
     gridtolerance="10"
     guidetolerance="10"
     inkscape:pageopacity="0"
     inkscape:pageshadow="2"
     inkscape:window-width="1366"
     inkscape:window-height="705"
     id="namedview8"
     showgrid="false"
     inkscape:zoom="0.80087891"
     inkscape:cx="504.17266"
     inkscape:cy="320"
     inkscape:window-x="-8"
     inkscape:window-y="-8"
     inkscape:window-maximized="1"
     inkscape:current-layer="svg4136" />
  <title
     id="title4707">Carbon Savvy Logo</title>
  <defs
     id="defs4138" />
  <metadata
     id="metadata4141">
    <rdf:RDF>
      <cc:Work
         rdf:about="">
        <dc:format>image/svg+xml</dc:format>
        <dc:type
           rdf:resource="http://purl.org/dc/dcmitype/StillImage" />
        <dc:title>Carbon Savvy Logo</dc:title>
      </cc:Work>
    </rdf:RDF>
  </metadata>
  <g
     transform="translate(0,-412.36227)"
     id="layer1"
     style="fill:#60d25f;fill-opacity:1;stroke:none;stroke-opacity:1"
     inkscape:export-filename="C:\Parth\Coding\Webtech\phonegap\CarbonSavvy\CarbonSavvy\www\res\icon\ios\icon-small@3x.png"
     inkscape:export-xdpi="12.234375"
     inkscape:export-ydpi="12.234375">
    <path
       transform="translate(0,412.36227)"
       id="path4691"
       d="M 320,0.19921875 C 143.26888,0.19921875 -6.9035617e-7,143.4681 0,320.19922 c 0,176.73112 143.26888,320 320,320 176.73112,0 320,-143.26888 320,-320 C 640,143.4681 496.73112,0.19921875 320,0.19921875 Z m 8.27539,86.85156225 c 13.61097,0 26.85838,1.288548 39.74023,3.865235 12.88186,2.342346 24.79121,5.386965 35.72852,9.134764 10.93743,3.7478 20.65921,8.08109 29.16602,13 8.50693,4.91903 14.34039,9.01948 17.5,12.29883 3.40277,3.04501 5.59034,5.38572 6.5625,7.02539 0.9719,1.63968 1.70105,3.63226 2.1875,5.97461 0.72924,2.10824 1.21437,4.6835 1.45703,7.72851 0.48657,3.04514 0.73047,6.67634 0.73047,10.89258 0,4.68481 -0.2439,8.66608 -0.73047,11.94532 -0.48658,3.27936 -1.21573,6.09125 -2.1875,8.43359 -0.9719,2.10813 -2.18593,3.74673 -3.64453,4.91797 -1.21581,0.93664 -2.79631,1.40625 -4.74024,1.40625 -3.40277,0 -8.14244,-2.2252 -14.21875,-6.67578 -6.07631,-4.68469 -13.97515,-9.7219 -23.69726,-15.10938 -9.47908,-5.6217 -21.146,-10.65683 -35,-15.10742 -13.61097,-4.68469 -30.01756,-7.02734 -49.21875,-7.02734 -20.90259,0 -39.98163,4.0986 -57.23828,12.29687 -17.01374,7.96417 -31.59739,19.79442 -43.75,35.48828 -12.15274,15.69387 -21.63208,34.90007 -28.4375,57.6211 -6.56252,22.4868 -9.84376,48.25332 -9.84376,77.29882 0,28.81117 3.161,54.34313 9.48047,76.59571 6.56238,22.01835 15.79746,40.52247 27.70703,55.51367 12.15262,14.75698 26.97871,26.00065 44.47852,33.73047 17.49981,7.4956 37.30984,11.24414 59.42774,11.24414 18.715,0 34.99938,-2.22532 48.85351,-6.67578 14.09704,-4.45059 26.0064,-9.37034 35.72852,-14.75781 9.96515,-5.6217 18.10643,-10.65696 24.42578,-15.10743 6.31934,-4.45046 11.3034,-6.67578 14.94922,-6.67578 1.70138,0 3.15969,0.3519 4.375,1.05469 1.21581,0.70279 2.1874,2.10684 2.91601,4.21484 0.72924,1.8739 1.21437,4.56846 1.45703,8.08203 0.48658,3.51358 0.73047,7.96409 0.73047,13.35157 0,3.7478 -0.12257,7.02698 -0.36523,9.83789 -0.24267,2.81079 -0.72779,5.27078 -1.45703,7.3789 -0.48657,2.10812 -1.21572,3.98142 -2.1875,5.6211 -0.9719,1.63968 -2.6746,3.63031 -5.10547,5.97265 -2.4305,2.34247 -7.53286,5.97367 -15.31055,10.89258 -7.77769,4.68482 -17.50143,9.37 -29.16797,14.05469 -11.4235,4.45059 -24.66909,8.19717 -39.73828,11.24219 -14.82628,3.27935 -31.11067,4.91992 -48.85351,4.91992 -30.62471,0 -58.33357,-4.91987 -83.125,-14.75781 -24.54827,-9.83807 -45.57246,-24.36092 -63.07227,-43.56836 -17.25678,-19.20745 -30.62444,-42.86416 -40.10352,-70.97266 -9.23604,-28.34272 -13.85351,-60.9024 -13.85351,-97.67773 0,-37.71222 4.98211,-71.32589 14.94726,-100.83985 10.20832,-29.51383 24.42733,-54.45921 42.65625,-74.83789 18.22893,-20.6129 39.98226,-36.30707 65.25977,-47.08203 25.52055,-10.774953 53.71429,-16.162109 84.58203,-16.162109 z"
       style="opacity:1;fill:#60d25f;fill-opacity:1;stroke:none;stroke-width:0.60500002;stroke-linejoin:bevel;stroke-miterlimit:4;stroke-dasharray:none;stroke-opacity:1;fill-rule:nonzero" />
  </g>
</svg>
